<?xml version="1.0" standalone="no"?>
<!DOCTYPE svg PUBLIC "-//W3C//DTD SVG 20010904//EN"
 "http://www.w3.org/TR/2001/REC-SVG-20010904/DTD/svg10.dtd">
<svg version="1.0" xmlns="http://www.w3.org/2000/svg"
 width="1088.000000pt" height="960.000000pt" viewBox="0 0 1088.000000 960.000000"
 preserveAspectRatio="xMidYMid meet">

<g transform="translate(0.000000,960.000000) scale(0.100000,-0.100000)"
fill="#000000" stroke="none">
<path d="M8478 7995 c-245 -237 -378 -373 -378 -386 0 -10 8 -26 18 -34 9 -8
114 -61 232 -119 118 -57 295 -142 392 -190 97 -47 186 -86 196 -86 40 0 45
23 38 154 l-7 123 98 13 c124 15 344 15 420 0 64 -13 122 -40 143 -64 18 -22
7 -106 -26 -198 -124 -344 -472 -795 -1071 -1389 -343 -341 -554 -532 -970
-879 -1179 -982 -2586 -1900 -3948 -2575 -469 -232 -721 -342 -1138 -495
l-238 -88 -82 33 c-45 18 -175 67 -289 110 -208 78 -248 86 -261 51 -3 -8 1
-78 10 -155 9 -78 13 -145 9 -149 -4 -4 -68 -8 -141 -10 -147 -4 -274 14 -328
46 -28 16 -32 24 -35 68 -11 183 282 633 667 1027 l76 77 -21 58 c-11 31 -53
152 -94 267 -40 116 -77 214 -82 220 -10 11 -67 -44 -269 -258 -465 -495 -794
-981 -916 -1357 -143 -439 -37 -706 327 -819 132 -41 180 -46 400 -46 194 1
373 16 475 41 20 5 22 -3 38 -169 9 -96 19 -182 23 -191 3 -9 18 -19 32 -23
22 -5 52 22 297 267 l271 273 170 57 c1402 473 3288 1544 4869 2763 356 275
860 697 1185 992 243 221 789 769 952 955 529 608 818 1101 876 1495 14 96 14
127 4 197 -38 264 -229 419 -596 483 -177 30 -609 12 -801 -35 -78 -19 -75
-23 -76 103 0 61 -4 132 -7 157 -6 41 -10 45 -37 48 -27 2 -65 -31 -407 -363z"/>
</g>
</svg>
