<?xml version="1.0" standalone="no"?>
<!DOCTYPE svg PUBLIC "-//W3C//DTD SVG 20010904//EN"
 "http://www.w3.org/TR/2001/REC-SVG-20010904/DTD/svg10.dtd">
<svg version="1.0" xmlns="http://www.w3.org/2000/svg"
 width="1088.000000pt" height="960.000000pt" viewBox="0 0 1088.000000 960.000000"
 preserveAspectRatio="xMidYMid meet">

<g transform="translate(0.000000,960.000000) scale(0.100000,-0.100000)"
fill="#000000" stroke="none">
<path d="M5100 7814 c-701 -84 -1318 -383 -1812 -878 -453 -453 -750 -1044
-849 -1684 -30 -197 -37 -574 -15 -772 82 -710 374 -1323 871 -1823 692 -696
1677 -1010 2655 -845 439 73 853 242 1217 495 408 284 748 672 970 1108 167
330 261 631 315 1015 8 61 13 196 13 375 0 243 -3 301 -23 435 -98 646 -398
1244 -853 1699 -505 505 -1148 810 -1858 881 -142 14 -492 11 -631 -6z"/>
</g>
</svg>
