<?xml version="1.0" standalone="no"?>
<!DOCTYPE svg PUBLIC "-//W3C//DTD SVG 20010904//EN"
 "http://www.w3.org/TR/2001/REC-SVG-20010904/DTD/svg10.dtd">
<svg version="1.0" xmlns="http://www.w3.org/2000/svg"
 width="1056.000000pt" height="992.000000pt" viewBox="0 0 1056.000000 992.000000"
 preserveAspectRatio="xMidYMid meet">

<g transform="translate(0.000000,992.000000) scale(0.100000,-0.100000)"
fill="#000000" stroke="none">
<path d="M4877 8684 c-1091 -108 -2072 -691 -2683 -1594 -398 -589 -614 -1293
-614 -2005 0 -1393 767 -2636 2019 -3269 472 -239 977 -367 1546 -391 404 -18
929 64 1325 208 106 38 377 152 400 167 12 8 -122 146 -683 702 l-699 692
-236 1 c-204 1 -252 5 -347 24 -301 62 -584 192 -820 376 -91 71 -257 239
-328 332 -169 221 -291 498 -349 793 -20 100 -23 145 -22 350 0 216 2 245 27
361 127 599 515 1083 1068 1330 385 173 850 207 1265 94 509 -140 924 -476
1161 -940 125 -245 186 -482 197 -763 2 -57 7 -107 12 -111 5 -5 142 -120 304
-257 163 -137 506 -427 763 -644 258 -217 472 -396 477 -398 4 -2 17 21 28 50
217 579 283 1230 187 1844 -118 754 -465 1432 -1015 1985 -610 613 -1370 972
-2252 1064 -181 18 -538 18 -731 -1z"/>
<path d="M5927 4472 c-246 -246 -447 -453 -447 -459 0 -6 58 -64 128 -130 124
-114 579 -539 1430 -1332 228 -213 418 -386 422 -386 21 0 220 175 376 330
209 208 366 399 498 606 l17 27 -228 208 c-1543 1410 -1735 1584 -1743 1584
-3 0 -207 -201 -453 -448z"/>
</g>
</svg>
